<?xml version="1.0" encoding="UTF-8" standalone="no"?>
<!DOCTYPE svg PUBLIC "-//W3C//DTD SVG 1.1//EN"
 "http://www.w3.org/Graphics/SVG/1.1/DTD/svg11.dtd">
<!-- Generated by graphviz version 2.49.3 (20211023.0002)
 -->
<!-- Pages: 1 -->
<svg width="109pt" height="326pt"
 viewBox="0.00 0.00 109.00 326.00" xmlns="http://www.w3.org/2000/svg" xmlns:xlink="http://www.w3.org/1999/xlink">
<g id="graph0" class="graph" transform="scale(1 1) rotate(0) translate(4 322)">
<polygon fill="white" stroke="transparent" points="-4,4 -4,-322 105,-322 105,4 -4,4"/>
<!-- 5142398016 -->
<g id="node1" class="node">
<title>5142398016</title>
<polygon fill="#caff70" stroke="black" points="77.5,-31 23.5,-31 23.5,0 77.5,0 77.5,-31"/>
<text text-anchor="middle" x="50.5" y="-7" font-family="monospace" font-size="10.00"> ()</text>
</g>
<!-- 5142497552 -->
<g id="node2" class="node">
<title>5142497552</title>
<polygon fill="lightgrey" stroke="black" points="98,-86 3,-86 3,-67 98,-67 98,-86"/>
<text text-anchor="middle" x="50.5" y="-74" font-family="monospace" font-size="10.00">MeanBackward0</text>
</g>
<!-- 5142497552&#45;&gt;5142398016 -->
<g id="edge5" class="edge">
<title>5142497552&#45;&gt;5142398016</title>
<path fill="none" stroke="black" d="M50.5,-66.79C50.5,-60.07 50.5,-50.4 50.5,-41.34"/>
<polygon fill="black" stroke="black" points="54,-41.19 50.5,-31.19 47,-41.19 54,-41.19"/>
</g>
<!-- 5142496016 -->
<g id="node3" class="node">
<title>5142496016</title>
<polygon fill="lightgrey" stroke="black" points="95,-141 6,-141 6,-122 95,-122 95,-141"/>
<text text-anchor="middle" x="50.5" y="-129" font-family="monospace" font-size="10.00">PowBackward0</text>
</g>
<!-- 5142496016&#45;&gt;5142497552 -->
<g id="edge1" class="edge">
<title>5142496016&#45;&gt;5142497552</title>
<path fill="none" stroke="black" d="M50.5,-121.75C50.5,-114.8 50.5,-104.85 50.5,-96.13"/>
<polygon fill="black" stroke="black" points="54,-96.09 50.5,-86.09 47,-96.09 54,-96.09"/>
</g>
<!-- 5142496448 -->
<g id="node4" class="node">
<title>5142496448</title>
<polygon fill="lightgrey" stroke="black" points="95,-196 6,-196 6,-177 95,-177 95,-196"/>
<text text-anchor="middle" x="50.5" y="-184" font-family="monospace" font-size="10.00">AddBackward0</text>
</g>
<!-- 5142496448&#45;&gt;5142496016 -->
<g id="edge2" class="edge">
<title>5142496448&#45;&gt;5142496016</title>
<path fill="none" stroke="black" d="M50.5,-176.75C50.5,-169.8 50.5,-159.85 50.5,-151.13"/>
<polygon fill="black" stroke="black" points="54,-151.09 50.5,-141.09 47,-151.09 54,-151.09"/>
</g>
<!-- 5142496544 -->
<g id="node5" class="node">
<title>5142496544</title>
<polygon fill="lightgrey" stroke="black" points="101,-251 0,-251 0,-232 101,-232 101,-251"/>
<text text-anchor="middle" x="50.5" y="-239" font-family="monospace" font-size="10.00">AccumulateGrad</text>
</g>
<!-- 5142496544&#45;&gt;5142496448 -->
<g id="edge3" class="edge">
<title>5142496544&#45;&gt;5142496448</title>
<path fill="none" stroke="black" d="M50.5,-231.75C50.5,-224.8 50.5,-214.85 50.5,-206.13"/>
<polygon fill="black" stroke="black" points="54,-206.09 50.5,-196.09 47,-206.09 54,-206.09"/>
</g>
<!-- 5142393408 -->
<g id="node6" class="node">
<title>5142393408</title>
<polygon fill="lightblue" stroke="black" points="80,-318 21,-318 21,-287 80,-287 80,-318"/>
<text text-anchor="middle" x="50.5" y="-294" font-family="monospace" font-size="10.00"> (2, 2)</text>
</g>
<!-- 5142393408&#45;&gt;5142496544 -->
<g id="edge4" class="edge">
<title>5142393408&#45;&gt;5142496544</title>
<path fill="none" stroke="black" d="M50.5,-286.92C50.5,-279.22 50.5,-269.69 50.5,-261.43"/>
<polygon fill="black" stroke="black" points="54,-261.25 50.5,-251.25 47,-261.25 54,-261.25"/>
</g>
</g>
</svg>
